<svg width="25" height="24" viewBox="0 0 25 24" fill="none" xmlns="http://www.w3.org/2000/svg">
<path d="M12.1562 23.4219C10.125 23.4219 8.36458 23.1302 6.875 22.5469C5.39583 21.9635 4.17188 21.1667 3.20312 20.1562C2.24479 19.1458 1.53125 17.9844 1.0625 16.6719C0.59375 15.3594 0.359375 13.9688 0.359375 12.5C0.359375 10.9792 0.640625 9.49479 1.20312 8.04688C1.76562 6.59896 2.58333 5.29167 3.65625 4.125C4.72917 2.95833 6.03125 2.03125 7.5625 1.34375C9.10417 0.65625 10.849 0.3125 12.7969 0.3125C14.3281 0.3125 15.7812 0.552083 17.1562 1.03125C18.5417 1.51042 19.7656 2.20312 20.8281 3.10938C21.901 4.01562 22.7448 5.10417 23.3594 6.375C23.974 7.63542 24.2812 9.05208 24.2812 10.625C24.2812 12.2708 24.0156 13.6667 23.4844 14.8125C22.9531 15.9479 22.2656 16.8125 21.4219 17.4062C20.5781 17.9896 19.6823 18.2812 18.7344 18.2812C18.4219 18.2812 18.0625 18.224 17.6562 18.1094C17.25 17.9948 16.875 17.776 16.5312 17.4531C16.1875 17.1302 15.9479 16.6719 15.8125 16.0781C15.5312 16.6198 15.1354 17.1042 14.625 17.5312C14.125 17.9583 13.5573 18.2969 12.9219 18.5469C12.2969 18.7969 11.651 18.9115 10.9844 18.8906C9.85938 18.8594 8.89583 18.5781 8.09375 18.0469C7.30208 17.5156 6.69792 16.8281 6.28125 15.9844C5.875 15.1406 5.67188 14.2448 5.67188 13.2969C5.67188 12.3073 5.84375 11.3333 6.1875 10.375C6.53125 9.41667 7.01042 8.55208 7.625 7.78125C8.25 7 8.97917 6.38021 9.8125 5.92188C10.6562 5.46354 11.5677 5.23438 12.5469 5.23438C13.2135 5.23438 13.8854 5.375 14.5625 5.65625C15.2396 5.9375 15.8281 6.30208 16.3281 6.75L16.7812 5.60938H18.9844L17.5938 14.7812C17.5104 15.3021 17.6094 15.6771 17.8906 15.9062C18.1719 16.1354 18.5312 16.25 18.9688 16.25C19.4792 16.2396 19.9271 16.0469 20.3125 15.6719C20.7083 15.2865 21.0208 14.6719 21.25 13.8281C21.4792 12.974 21.5938 11.8438 21.5938 10.4375C21.5938 9.14583 21.3594 8.01562 20.8906 7.04688C20.4323 6.07812 19.7969 5.27083 18.9844 4.625C18.1719 3.97917 17.2396 3.5 16.1875 3.1875C15.1354 2.86458 14.0208 2.70312 12.8438 2.70312C11.3542 2.70312 10.0156 3 8.82812 3.59375C7.65104 4.1875 6.64583 4.97917 5.8125 5.96875C4.97917 6.94792 4.33854 8.02083 3.89062 9.1875C3.45312 10.3438 3.23438 11.4948 3.23438 12.6406C3.23438 13.7969 3.40104 14.8854 3.73438 15.9062C4.07812 16.9271 4.60938 17.8333 5.32812 18.625C6.05729 19.4062 6.99479 20.0156 8.14062 20.4531C9.28646 20.901 10.6562 21.125 12.25 21.125C13.1042 21.125 13.9115 21.0469 14.6719 20.8906C15.4323 20.7344 16.1094 20.5469 16.7031 20.3281C17.2969 20.1094 17.7656 19.9062 18.1094 19.7188L19.125 21.5781C18.1042 22.1615 17.0156 22.6146 15.8594 22.9375C14.7031 23.2604 13.4688 23.4219 12.1562 23.4219ZM11.2344 16.7031C11.5885 16.7031 11.9688 16.6406 12.375 16.5156C12.7812 16.3906 13.1771 16.1667 13.5625 15.8438C13.9583 15.5104 14.3073 15.0417 14.6094 14.4375C14.9219 13.8229 15.151 13.0312 15.2969 12.0625L15.8438 8.5625C15.3958 8.1875 14.9062 7.89583 14.375 7.6875C13.8438 7.47917 13.3021 7.375 12.75 7.375C11.9583 7.375 11.2448 7.61979 10.6094 8.10938C9.97396 8.59896 9.46875 9.29167 9.09375 10.1875C8.71875 11.0729 8.53125 12.125 8.53125 13.3438C8.53125 14 8.64583 14.5833 8.875 15.0938C9.10417 15.6042 9.42188 16 9.82812 16.2812C10.2448 16.5625 10.7135 16.7031 11.2344 16.7031Z" fill="#606C38"/>
</svg>
