<svg width="38" height="38" viewBox="0 0 38 38" fill="none" xmlns="http://www.w3.org/2000/svg">
<path d="M19.0016 3.16667C10.2536 3.16667 3.16821 10.2521 3.16821 19C3.16821 26.0062 7.7005 31.924 13.9943 34.0219C14.7859 34.1604 15.0828 33.6854 15.0828 33.2698C15.0828 32.8937 15.063 31.6469 15.063 30.3208C11.0849 31.0531 10.0557 29.351 9.73905 28.4604C9.56092 28.0052 8.78905 26.6 8.11613 26.224C7.56196 25.9271 6.7703 25.1948 8.09634 25.175C9.34321 25.1552 10.2338 26.3229 10.5307 26.7979C11.9557 29.1927 14.2318 28.5198 15.1422 28.1042C15.2807 27.075 15.6963 26.3823 16.1516 25.9865C12.6286 25.5906 8.94738 24.225 8.94738 18.1687C8.94738 16.4469 9.56092 15.0219 10.5703 13.9135C10.412 13.5177 9.8578 11.8948 10.7286 9.71771C10.7286 9.71771 12.0547 9.30208 15.0828 11.3406C16.3495 10.9844 17.6953 10.8062 19.0412 10.8062C20.387 10.8062 21.7328 10.9844 22.9995 11.3406C26.0276 9.28229 27.3537 9.71771 27.3537 9.71771C28.2245 11.8948 27.6703 13.5177 27.512 13.9135C28.5214 15.0219 29.1349 16.4271 29.1349 18.1687C29.1349 24.2448 25.4339 25.5906 21.911 25.9865C22.4849 26.4812 22.9797 27.4312 22.9797 28.9156C22.9797 31.0333 22.9599 32.7354 22.9599 33.2698C22.9599 33.6854 23.2568 34.1802 24.0485 34.0219C30.4934 31.8461 34.8332 25.8025 34.8349 19C34.8349 10.2521 27.7495 3.16667 19.0016 3.16667Z" fill="#5E503F"/>
</svg>
