<svg width="29" height="30" viewBox="0 0 29 30" fill="none" xmlns="http://www.w3.org/2000/svg">
<path d="M14.5012 11.3751C12.4985 11.3751 10.8762 12.998 10.8762 15.0001C10.8762 17.0027 12.4991 18.6251 14.5012 18.6251C16.5038 18.6251 18.1262 17.0022 18.1262 15.0001C18.1262 12.9975 16.5033 11.3751 14.5012 11.3751ZM14.5012 8.95842C17.8367 8.95842 20.5429 11.6616 20.5429 15.0001C20.5429 18.3357 17.8397 21.0417 14.5012 21.0417C11.1656 21.0417 8.45951 18.3386 8.45951 15.0001C8.45951 11.6645 11.1627 8.95842 14.5012 8.95842ZM22.3554 8.6553C22.3554 9.48919 21.6777 10.1657 20.845 10.1657C20.0111 10.1657 19.3345 9.48815 19.3345 8.6553C19.3345 7.82246 20.012 7.14592 20.845 7.14592C21.6766 7.14486 22.3554 7.82246 22.3554 8.6553ZM14.5012 5.33341C11.5112 5.33341 11.0238 5.34133 9.63316 5.40326C8.68568 5.44774 8.05055 5.57517 7.46044 5.80427C6.93602 6.00765 6.55773 6.25052 6.15467 6.65358C5.75006 7.05819 5.50763 7.43547 5.30506 7.96013C5.07543 8.55159 4.94804 9.18571 4.90436 10.1319C4.84182 11.4659 4.83451 11.9322 4.83451 15.0001C4.83451 17.9901 4.84243 18.4774 4.90434 19.868C4.94885 20.8151 5.07645 21.4511 5.30499 22.0398C5.50891 22.565 5.75227 22.9441 6.15339 23.3453C6.55959 23.751 6.93799 23.9942 7.45767 24.1948C8.05498 24.4257 8.6897 24.5533 9.63297 24.5969C10.967 24.6594 11.4333 24.6667 14.5012 24.6667C17.4912 24.6667 17.9785 24.6588 19.3691 24.5969C20.3141 24.5526 20.9507 24.4246 21.541 24.1962C22.0646 23.9929 22.445 23.7487 22.8464 23.3479C23.2527 22.941 23.4954 22.5635 23.6963 22.0426C23.9266 21.4475 24.0544 20.8119 24.098 19.8683C24.1605 18.5342 24.1679 18.0679 24.1679 15.0001C24.1679 12.0101 24.1599 11.5228 24.098 10.1322C24.0536 9.18686 23.9256 8.54938 23.697 7.95934C23.4941 7.43637 23.2504 7.05692 22.8476 6.65358C22.4424 6.2483 22.0661 6.00637 21.5411 5.80396C20.9501 5.57453 20.315 5.44695 19.3693 5.40327C18.0353 5.34072 17.569 5.33341 14.5012 5.33341ZM14.5012 2.91675C17.7838 2.91675 18.1936 2.92883 19.4826 2.98925C20.7683 3.04866 21.6455 3.25206 22.4158 3.55112C23.2122 3.85825 23.8849 4.2731 24.5565 4.94473C25.2271 5.61637 25.642 6.29102 25.9502 7.0855C26.2481 7.85481 26.4516 8.73286 26.512 10.0187C26.5694 11.3076 26.5845 11.7174 26.5845 15.0001C26.5845 18.2828 26.5725 18.6925 26.512 19.9814C26.4526 21.2673 26.2481 22.1444 25.9502 22.9147C25.643 23.7112 25.2271 24.3838 24.5565 25.0555C23.8849 25.7261 23.2092 26.1409 22.4158 26.449C21.6455 26.7471 20.7683 26.9505 19.4826 27.0109C18.1936 27.0683 17.7838 27.0834 14.5012 27.0834C11.2185 27.0834 10.8087 27.0713 9.51983 27.0109C8.23395 26.9515 7.35791 26.7471 6.5866 26.449C5.7911 26.1419 5.11746 25.7261 4.44583 25.0555C3.7742 24.3838 3.36035 23.7082 3.05222 22.9147C2.75316 22.1444 2.55076 21.2673 2.49035 19.9814C2.43295 18.6925 2.41785 18.2828 2.41785 15.0001C2.41785 11.7174 2.42993 11.3076 2.49035 10.0187C2.54975 8.73185 2.75316 7.85581 3.05222 7.0855C3.35933 6.29002 3.7742 5.61637 4.44583 4.94473C5.11746 4.2731 5.79212 3.85925 6.5866 3.55112C7.35691 3.25206 8.23295 3.04966 9.51983 2.98925C10.8087 2.93185 11.2185 2.91675 14.5012 2.91675Z" fill="#4B3F32"/>
</svg>
