<svg width="38" height="38" viewBox="0 0 38 38" fill="none" xmlns="http://www.w3.org/2000/svg">
<path d="M29.0324 29.0368H24.812V22.4235C24.812 20.8465 24.78 18.8171 22.6127 18.8171C20.4124 18.8171 20.0762 20.5331 20.0762 22.3071V29.0368H15.8559V15.4375H19.91V17.2911H19.9646C20.5311 16.2224 21.9086 15.0943 23.9665 15.0943C28.2427 15.0943 29.0336 17.9088 29.0336 21.5721L29.0324 29.0368ZM11.0893 13.5767C9.73077 13.5767 8.63946 12.4771 8.63946 11.1245C8.63946 9.77313 9.73196 8.67469 11.0893 8.67469C12.443 8.67469 13.5403 9.77313 13.5403 11.1245C13.5403 12.4771 12.4418 13.5767 11.0893 13.5767ZM13.2054 29.0368H8.97315V15.4375H13.2054V29.0368ZM31.1437 4.75H6.85465C5.69209 4.75 4.75159 5.66913 4.75159 6.80319V31.1969C4.75159 32.332 5.69209 33.25 6.85465 33.25H31.1402C32.3016 33.25 33.2516 32.332 33.2516 31.1969V6.80319C33.2516 5.66913 32.3016 4.75 31.1402 4.75H31.1437Z" fill="#5E503F"/>
</svg>
