<svg width="38" height="39" viewBox="0 0 38 39" fill="none" xmlns="http://www.w3.org/2000/svg">
<path d="M6.33486 5.25H31.6682C32.5427 5.25 33.2516 5.95889 33.2516 6.83333V32.1667C33.2516 33.0411 32.5427 33.75 31.6682 33.75H6.33486C5.4604 33.75 4.75153 33.0411 4.75153 32.1667V6.83333C4.75153 5.95889 5.4604 5.25 6.33486 5.25ZM7.91819 8.41667V30.5833H30.0849V8.41667H7.91819ZM11.8765 14.75C10.5648 14.75 9.50153 13.6867 9.50153 12.375C9.50153 11.0633 10.5648 10 11.8765 10C13.1882 10 14.2515 11.0633 14.2515 12.375C14.2515 13.6867 13.1882 14.75 11.8765 14.75ZM10.2932 16.3333H13.4599V28.2083H10.2932V16.3333ZM19.0016 17.0134C19.9269 16.1201 21.0053 15.5417 22.1682 15.5417C25.4473 15.5417 27.7099 18.1999 27.7099 21.4792V28.2083H24.5432V21.4792C24.5432 19.9489 23.3027 18.7083 21.7724 18.7083C20.2421 18.7083 19.0016 19.9489 19.0016 21.4792V28.2083H15.8349V16.3333H19.0016V17.0134Z" fill="#2B2B2B"/>
</svg>
