<svg width="38" height="39" viewBox="0 0 38 39" fill="none" xmlns="http://www.w3.org/2000/svg">
<path d="M11.4849 29.7829L12.6324 30.452C14.5494 31.5698 16.7281 32.1667 19.0016 32.1667C25.9972 32.1667 31.6682 26.4957 31.6682 19.5001C31.6682 12.5045 25.9972 6.83341 19.0016 6.83341C12.0059 6.83341 6.33488 12.5045 6.33488 19.5001C6.33488 21.7742 6.93216 23.9537 8.05071 25.8711L8.71947 27.0174L7.68478 30.82L11.4849 29.7829ZM3.17483 35.3334L5.31543 27.4666C3.95032 25.1266 3.16821 22.4047 3.16821 19.5001C3.16821 10.7556 10.257 3.66675 19.0016 3.66675C27.746 3.66675 34.8349 10.7556 34.8349 19.5001C34.8349 28.2445 27.746 35.3334 19.0016 35.3334C16.0979 35.3334 13.3768 34.5519 11.0372 33.1875L3.17483 35.3334ZM13.2878 12.0716C13.4998 12.0567 13.7125 12.0544 13.9248 12.0648C14.0105 12.0704 14.0959 12.0803 14.1813 12.0902C14.4334 12.1193 14.7107 12.2729 14.8039 12.4842C15.2763 13.5552 15.7346 14.6324 16.1788 15.7153C16.2768 15.9544 16.2178 16.2643 16.0312 16.5641C15.9366 16.7178 15.7879 16.9335 15.6156 17.1541C15.4365 17.3832 15.0511 17.8045 15.0511 17.8045C15.0511 17.8045 14.895 17.9916 14.9539 18.2245C14.9768 18.3126 15.0499 18.4408 15.1162 18.5487C15.1529 18.6083 15.187 18.6617 15.2091 18.6986C15.6143 19.3752 16.159 20.0611 16.8243 20.7059C17.015 20.8907 17.1999 21.0793 17.3988 21.2544C18.1402 21.9082 18.9791 22.4424 19.8851 22.8381L19.8932 22.8417C20.0269 22.8993 20.0957 22.9308 20.2915 23.014C20.3903 23.0558 20.4913 23.0919 20.595 23.1193C20.6326 23.1291 20.671 23.1346 20.7097 23.1373C20.9657 23.1527 21.1137 22.9885 21.1769 22.913C22.3225 21.5252 22.4273 21.4346 22.4352 21.4352V21.4378C22.5858 21.2791 22.8225 21.224 23.0337 21.237C23.1301 21.2429 23.2261 21.2614 23.3138 21.3014C24.1558 21.6856 25.5325 22.2847 25.5325 22.2847L26.4532 22.6986C26.6074 22.773 26.7482 22.9483 26.755 23.1186C26.7591 23.2246 26.7705 23.3956 26.7327 23.7084C26.6831 24.118 26.5585 24.6112 26.4347 24.8696C26.3476 25.0509 26.2349 25.2118 26.1038 25.348C25.926 25.5326 25.7939 25.6447 25.5802 25.804C25.45 25.9009 25.3826 25.9465 25.3826 25.9465C25.1626 26.0852 25.0387 26.1545 24.7766 26.294C24.3691 26.5111 23.9188 26.6358 23.4576 26.6596C23.1635 26.6746 22.8703 26.6959 22.5766 26.68C22.5636 26.6792 21.6769 26.5431 21.6769 26.5431C19.4256 25.9509 17.3435 24.8416 15.5964 23.3032C15.2392 22.9888 14.9079 22.6485 14.5697 22.3119C13.1621 20.9105 12.0964 19.3994 11.4502 17.9699C11.1315 17.265 10.9297 16.5101 10.9265 15.7333C10.9207 14.7723 11.2353 13.8368 11.8207 13.0747C11.9361 12.9245 12.0456 12.7686 12.2346 12.5902C12.4347 12.4012 12.562 12.2998 12.6992 12.2296C12.8821 12.136 13.083 12.086 13.2878 12.0716Z" fill="#2B2B2B"/>
</svg>
